<svg version="1.1" xmlns="http://www.w3.org/2000/svg" viewBox="0 0 248.58085426371576 248.5808542637157" width="745.7425627911473" height="745.7425627911471">
  <!-- svg-source:excalidraw -->
  
  <defs>
    <style class="style-fonts">
      @font-face {
        font-family: "Virgil";
        src: url("https://excalidraw.com/Virgil.woff2");
      }
      @font-face {
        font-family: "Cascadia";
        src: url("https://excalidraw.com/Cascadia.woff2");
      }
      @font-face {
        font-family: "Assistant";
        src: url("https://excalidraw.com/Assistant-Regular.woff2");
      }
    </style>
    
  </defs>
  <rect x="0" y="0" width="248.58085426371576" height="248.5808542637157" fill="#ffffff"></rect><g stroke-linecap="round" transform="translate(10 10) rotate(0 114.29042713185788 114.29042713185785)"><path d="M32 0 C96.57 4.27, 161.01 0.66, 196.58 0 M32 0 C67.66 -0.97, 99.48 -0.97, 196.58 0 M196.58 0 C215.08 2.37, 229.08 9.47, 228.58 32 M196.58 0 C218.79 -2.43, 226.16 13.31, 228.58 32 M228.58 32 C234.7 77.57, 231.43 125.04, 228.58 196.58 M228.58 32 C227.16 81.95, 230.1 133.87, 228.58 196.58 M228.58 196.58 C225.58 217.14, 214.52 226.01, 196.58 228.58 M228.58 196.58 C225.21 217.79, 220.25 224.13, 196.58 228.58 M196.58 228.58 C141.41 234.51, 92.55 228.06, 32 228.58 M196.58 228.58 C156.46 229.86, 115.38 228.69, 32 228.58 M32 228.58 C8.86 227.38, -2.42 215.69, 0 196.58 M32 228.58 C9.52 225.01, 3.16 221.94, 0 196.58 M0 196.58 C-3.29 154.44, 2.26 115.28, 0 32 M0 196.58 C2.6 130.99, 0.21 66.5, 0 32 M0 32 C3.53 9.14, 9.31 -0.69, 32 0 M0 32 C-3.25 14.63, 7.29 3.54, 32 0" stroke="#1e1e1e" stroke-width="1" fill="none"></path></g><g transform="translate(59.50843708058824 101.79042713185783) rotate(0 64.78199005126953 22.5)"><text x="64.78199005126953" y="31.536" font-family="Virgil, Segoe UI Emoji" font-size="36px" fill="#1e1e1e" text-anchor="middle" style="white-space: pre;" direction="ltr" dominant-baseline="alphabetic">Photo 1</text></g></svg>