<svg version="1.1" xmlns="http://www.w3.org/2000/svg" viewBox="0 0 248.58085426371576 248.58085426371565" width="745.7425627911473" height="745.742562791147">
  <!-- svg-source:excalidraw -->
  
  <defs>
    <style class="style-fonts">
      @font-face {
        font-family: "Virgil";
        src: url("https://excalidraw.com/Virgil.woff2");
      }
      @font-face {
        font-family: "Cascadia";
        src: url("https://excalidraw.com/Cascadia.woff2");
      }
      @font-face {
        font-family: "Assistant";
        src: url("https://excalidraw.com/Assistant-Regular.woff2");
      }
    </style>
    
  </defs>
  <rect x="0" y="0" width="248.58085426371576" height="248.58085426371565" fill="#ffffff"></rect><g stroke-linecap="round" transform="translate(10 10) rotate(0 114.29042713185788 114.29042713185783)"><path d="M32 0 C76.1 -1.18, 117.91 0.61, 196.58 0 M32 0 C68.36 -0.52, 105.54 1.37, 196.58 0 M196.58 0 C221.51 2.59, 230.45 13.38, 228.58 32 M196.58 0 C222.26 -3.96, 226.54 7.04, 228.58 32 M228.58 32 C230.31 76.15, 234.67 121.92, 228.58 196.58 M228.58 32 C232.06 84.69, 231.58 137.65, 228.58 196.58 M228.58 196.58 C228.62 214.66, 215.98 232.34, 196.58 228.58 M228.58 196.58 C228.57 216.5, 213.75 227.85, 196.58 228.58 M196.58 228.58 C152.7 235.05, 113.67 233.29, 32 228.58 M196.58 228.58 C130.05 225.34, 65.89 224.56, 32 228.58 M32 228.58 C10.07 230.17, 2.15 213.95, 0 196.58 M32 228.58 C10.98 225.2, 3.44 220.29, 0 196.58 M0 196.58 C5.85 138.38, -0.32 74.4, 0 32 M0 196.58 C-1.94 163.75, 0.28 130.37, 0 32 M0 32 C2.33 8.34, 7.82 -3.8, 32 0 M0 32 C-3.38 11.99, 9.43 -3.69, 32 0" stroke="#1e1e1e" stroke-width="1" fill="none"></path></g><g transform="translate(52.86643878957261 101.79042713185783) rotate(0 71.42398834228516 22.5)"><text x="71.42398834228516" y="31.536" font-family="Virgil, Segoe UI Emoji" font-size="36px" fill="#1e1e1e" text-anchor="middle" style="white-space: pre;" direction="ltr" dominant-baseline="alphabetic">Photo 4</text></g></svg>